<svg id="visual" viewBox="0 0 900 600" width="900" height="600" xmlns="http://www.w3.org/2000/svg" xmlns:xlink="http://www.w3.org/1999/xlink" version="1.1"><rect x="0" y="0" width="900" height="600" fill="#002233"></rect><path d="M0 468L21.5 455.5C43 443 86 418 128.8 404.7C171.7 391.3 214.3 389.7 257.2 405.2C300 420.7 343 453.3 385.8 466.7C428.7 480 471.3 474 514.2 466.3C557 458.7 600 449.3 642.8 454.5C685.7 459.7 728.3 479.3 771.2 488.3C814 497.3 857 495.7 878.5 494.8L900 494L900 601L878.5 601C857 601 814 601 771.2 601C728.3 601 685.7 601 642.8 601C600 601 557 601 514.2 601C471.3 601 428.7 601 385.8 601C343 601 300 601 257.2 601C214.3 601 171.7 601 128.8 601C86 601 43 601 21.5 601L0 601Z" fill="#16DB99" stroke-linecap="round" stroke-linejoin="miter"></path></svg>